<svg width="3815" height="3403" viewBox="0 0 3815 3403" fill="none" xmlns="http://www.w3.org/2000/svg">
<path d="M298.05 422.11H3278.52C3442.45 422.11 3576.57 556.231 3576.57 720.16V1077.82C3576.57 1241.75 3442.45 1375.87 3278.52 1375.87H298.05C134.121 1375.85 0 1241.73 0 1077.81V720.153C0 556.231 134.121 422.11 298.05 422.11Z" fill="#A86A3F"/>
<path d="M950.77 741.017L2816.55 246.263C2879.14 228.38 2944.7 267.127 2962.59 329.718L3272.55 1474.22C3290.44 1536.81 3251.69 1602.38 3189.1 1620.26L760.021 2267.02C697.43 2284.9 631.864 2246.15 613.982 2183.56L387.461 1343.07L950.77 741.017Z" fill="#3DB39E"/>
<path d="M2947.69 1438.45L2545.32 1545.74C2512.54 1554.69 2479.75 1536.8 2473.79 1504.01C2464.85 1471.23 2482.74 1438.44 2515.52 1432.48L2861.26 1340.09L2676.47 648.624L2330.74 741.017C2297.95 749.962 2265.16 732.072 2259.21 699.29C2250.26 666.507 2268.15 633.716 2300.94 627.761L2703.3 520.467C2736.08 511.522 2768.87 529.412 2774.83 562.195L2989.42 1366.92C2998.35 1399.7 2980.47 1432.48 2947.69 1438.45ZM1278.62 1888.5L876.26 1995.79C843.477 2004.74 810.687 1986.85 804.731 1954.07L590.137 1149.34C581.192 1116.56 599.081 1083.77 631.864 1077.81L1034.23 970.52C1067.01 961.575 1099.8 979.465 1105.75 1012.25C1114.7 1045.03 1096.81 1077.82 1064.03 1083.78L718.294 1176.17L903.079 1867.64L1248.81 1775.24C1281.6 1766.3 1314.39 1784.19 1320.34 1816.97C1329.29 1846.77 1311.4 1879.55 1278.62 1888.5Z" fill="#78CABB"/>
<path d="M23.8453 1158.29C554.364 854.275 1985 16.7615 1985 16.7615C2041.62 -16.0213 2116.13 1.8609 2148.93 58.4892L2745.02 1083.77C2777.8 1140.4 2756.94 1211.93 2700.31 1244.72L518.6 2496.51C461.971 2529.29 387.461 2511.41 354.67 2454.78C354.67 2454.78 187.767 2115.01 20.8561 1828.88C20.8637 1158.29 23.8453 1378.84 23.8453 1158.29Z" fill="#5ABEAC"/>
<path d="M2441 1050.99L2023.74 329.711C2005.86 299.91 1970.1 290.965 1943.27 308.847L1582.63 517.478C1552.83 535.36 1543.89 571.125 1561.77 597.952C1579.65 627.753 1615.42 636.698 1642.24 618.816L1952.21 439.986L2309.87 1059.92L1999.9 1238.75C1970.1 1256.64 1961.16 1292.4 1979.04 1319.23C1996.92 1349.03 2032.69 1357.97 2059.51 1340.09L2420.15 1131.46C2446.97 1116.56 2458.89 1080.79 2441 1050.99ZM861.359 1894.46L551.39 2073.29L193.731 1453.35L503.699 1274.52C533.501 1256.64 542.446 1220.87 524.563 1194.04C506.681 1164.24 470.917 1155.3 444.089 1173.18L83.4556 1381.81C53.6544 1399.69 44.7095 1435.46 62.5917 1462.29L479.854 2183.56C497.736 2213.36 533.501 2222.31 560.328 2204.42L920.962 1995.79C950.763 1977.91 959.708 1942.15 941.825 1915.32C926.925 1888.5 891.16 1876.57 861.359 1894.46ZM1013.36 842.355C783.867 973.494 706.375 1265.58 837.514 1495.08C971.634 1724.57 1260.74 1802.06 1490.23 1670.92C1719.73 1539.78 1797.22 1247.7 1666.08 1018.2C1531.96 791.682 1242.86 711.216 1013.36 842.355ZM2441 1050.99L2023.74 329.711C2005.86 299.91 1970.1 290.965 1943.27 308.847L1582.63 517.478C1552.83 535.36 1543.89 571.125 1561.77 597.952C1579.65 627.753 1615.42 636.698 1642.24 618.816L1952.21 439.986L2309.87 1059.92L1999.9 1238.75C1970.1 1256.64 1961.16 1292.4 1979.04 1319.23C1996.92 1349.03 2032.69 1357.97 2059.51 1340.09L2420.15 1131.46C2446.97 1116.56 2458.89 1080.79 2441 1050.99ZM861.359 1894.46L551.39 2073.29L193.731 1453.35L503.699 1274.52C533.501 1256.64 542.446 1220.87 524.563 1194.04C506.681 1164.24 470.917 1155.3 444.089 1173.18L83.4556 1381.81C53.6544 1399.69 44.7095 1435.46 62.5917 1462.29L479.854 2183.56C497.736 2213.36 533.501 2222.31 560.328 2204.42L920.962 1995.79C950.763 1977.91 959.708 1942.15 941.825 1915.32C926.925 1888.5 891.16 1876.57 861.359 1894.46ZM1013.36 842.355C783.867 973.494 706.375 1265.58 837.514 1495.08C971.634 1724.57 1260.74 1802.06 1490.23 1670.92C1719.73 1539.78 1797.22 1247.7 1666.08 1018.2C1531.96 791.682 1242.86 711.216 1013.36 842.355Z" fill="#8CD2C5"/>
<path d="M3397.74 3402.58H298.05C134.121 3402.58 0 3268.46 0 3104.53V958.591H3397.74C3561.67 958.591 3695.79 1092.71 3695.79 1256.64V3104.53C3695.78 3268.46 3561.66 3402.58 3397.74 3402.58ZM238.44 958.591H0V720.151C0 851.29 107.293 958.591 238.44 958.591Z" fill="#C47E4D"/>
<path d="M3695.78 2657.46H3218.91C2989.41 2657.46 2801.65 2469.69 2801.65 2240.19C2801.65 2010.7 2989.41 1822.93 3218.91 1822.93H3695.78C3761.35 1822.93 3815 1876.58 3815 1942.15V2538.24C3815 2603.81 3761.35 2657.46 3695.78 2657.46Z" fill="#A86A3F"/>
<path d="M3218.91 2001.75C3350.05 2001.75 3457.35 2109.05 3457.35 2240.19C3457.35 2371.34 3350.05 2478.63 3218.91 2478.63C3087.77 2478.63 2980.47 2371.34 2980.47 2240.19C2980.47 2109.05 3087.77 2001.75 3218.91 2001.75Z" fill="#EFC75E"/>
<path d="M3278.52 2419.02C3147.38 2419.02 3040.08 2311.72 3040.08 2180.58C3040.08 2129.91 3054.98 2082.22 3081.81 2043.48C3019.21 2085.2 2980.47 2156.73 2980.47 2240.19C2980.47 2371.33 3087.76 2478.63 3218.91 2478.63C3299.38 2478.63 3370.91 2436.9 3415.62 2377.29C3376.87 2404.12 3329.18 2419.02 3278.52 2419.02Z" fill="#D7B354"/>
<path d="M3397.74 3283.36H298.05C134.121 3283.36 0 3149.24 0 2985.31V3104.53C0 3268.46 134.121 3402.58 298.05 3402.58H3397.74C3561.67 3402.58 3695.79 3268.46 3695.79 3104.53V2985.31C3695.78 3149.24 3561.66 3283.36 3397.74 3283.36Z" fill="#B27245"/>
<path d="M3397.74 958.591H238.44C107.293 958.591 0 851.29 0 720.151V839.371C0 970.51 107.293 1077.81 238.44 1077.81H3397.74C3561.67 1077.81 3695.79 1211.93 3695.79 1375.86V1256.64C3695.78 1092.71 3561.66 958.591 3397.74 958.591Z" fill="#CA8B5F"/>
</svg>
